<?xml version="1.0" encoding="utf-8"?>
<!-- Generator: Adobe Illustrator 24.0.1, SVG Export Plug-In . SVG Version: 6.00 Build 0)  -->
<svg version="1.1" id="_x31_170px_grid" xmlns="http://www.w3.org/2000/svg" xmlns:xlink="http://www.w3.org/1999/xlink" x="0px"
	 y="0px" viewBox="0 0 230 40" style="enable-background:new 0 0 230 40;" xml:space="preserve">
<style type="text/css">
	.st0{fill:#2B94B3;}
	.st1{fill:#36C1D8;}
	.st2{fill:#EBFBFF;}
	.st3{fill:#36C0E6;}
	.st4{enable-background:new    ;}
	.st5{fill:#303333;}
</style>
<g>
	<path class="st0" d="M31.4,18.8c0,2.2-1.8,3.9-3.9,3.9c-1.1,0-2.1-0.4-2.8-1.1c-0.1,0-0.1-0.1-0.2-0.2c-1-1.3-1.7-2.9-1.7-4.7
		c-1.9,1-2.3,4.1-2.3,4.1s-1.9-2.1-2.3-3.9c-0.5-1.9-1.2-4.1-1.2-6.9c-0.7,0.5-1.7,0.8-2.6,0.8c-2.5,0-4.5-2-4.5-4.5
		c0-0.2,0-0.5,0.1-0.7c-1.4,1.1-2.3,2.9-2.3,4.8c0,0.9,0.2,1.8,0.6,2.6l0,0c0,0,0,0,0,0c0.1,0.1,0.1,0.3,0.2,0.4
		c0.5,1,1.6,3.1,1.6,3.2c0.2,0.4,0.3,0.9,0.3,1.4c0,1.9-1.5,3.4-3.4,3.4S3.5,20,3.5,18.1c0-0.5,0.1-1,0.3-1.4
		C1.4,19.2,0,22.3,0,25.7c0,7.8,7.6,14.1,16.9,14.1s16.9-6.3,16.9-14.1c0-2.7-0.9-5.3-2.5-7.4C31.3,18.4,31.4,18.6,31.4,18.8z"/>
	<path class="st1" d="M27.5,6.2c0-3.4-2.8-6.2-6.2-6.2c-0.1,0-0.1,0-0.2,0c2,0.7,3.5,2.6,3.5,4.9c0,1.3-0.5,2.4-1.2,3.3
		c-0.4,0.5-1,0.7-1.6,0.7c-1.2,0-2.2-1-2.2-2.2c0-0.6,0.2-1.1,0.5-1.5c-1.7,0.4-3,1.7-3.4,3.4c-0.3,1.2-0.3,2.5-0.3,3.3
		c0,3,0.8,5.9,2.2,8.3c-0.3-0.1-0.5-0.2-0.5-0.2v2.8L12.8,26c0,0,1.5,1.2,1.7,3.6c1.2,0,2.4,0.3,3.6,0.6v1.6c0,0-5.7,3.8-0.9,3.8
		s8.6-3.8,8.6-8.6c0,0,0,0,0-0.1c0-0.1,0-0.3,0-0.4c0-2.5-1.1-4.4-2.1-6.6c-0.5-1-0.7-2-0.7-3.1c0-1.5,0.4-2.8,1.2-4l1.8-2.3
		c0.2-0.2,0.3-0.3,0.5-0.5s0.3-0.4,0.4-0.5l0,0l0,0C27.2,8.5,27.5,7.4,27.5,6.2z"/>
	<path class="st2" d="M22.7,27.1L22.7,27.1C22.1,25,19.1,21,19.1,21l0,0c-1-1.5-1.7-3.1-2.1-4.9c-0.5,1.7-1.2,3.4-2.1,4.9l0,0
		c0,0-2.7,3.5-3.7,6.1c0,0,0,0,0,0c-0.3,0.7-0.4,1.4-0.4,2.2c0,3.4,2.8,6.2,6.2,6.2s6.2-2.8,6.2-6.2C23.1,28.5,23,27.8,22.7,27.1z"
		/>
	<path class="st3" d="M14.3,3.6c0,0-0.1,0-0.1,0c0.1,0.4,0.2,0.8,0.2,1.2c0,1.4-0.6,2.7-1.7,3.5l0,0c-0.1,0.1-0.1,0.1-0.1,0.2
		c0,0.1,0,0.1,0.1,0.2c0.5,0.3,1,0.5,1.6,0.5c0.2,0,0.5,0,0.7-0.1c0.2-0.6,0.4-1.4,0.4-2.1C15.3,5.8,15,4.6,14.3,3.6z"/>
</g>
<g class="st4">
	<path class="st5" d="M54.9,26.2c0.5,2,2.3,3.4,4.8,3.4c2.4,0,4.2-1.1,4.2-3c0-1.4-1-2.4-3.1-3.1l-3-1C53,20.9,52.1,18,52.1,16
		c0-4.1,3.5-6.6,7.7-6.6c3.9,0,6.7,2,7.7,5.3L64,16.2c-0.8-2.4-2.4-3-4.1-3c-1.9,0-3.5,0.9-3.5,2.8c0,0.8,0.2,2,2.8,2.9l3,1.1
		c4.5,1.4,6,4.3,6,6.6c0,4.5-3.8,6.9-8.3,6.9c-4.6,0-8.2-2.6-8.8-6.3L54.9,26.2z"/>
	<path class="st5" d="M74.9,8.6c1.5,0,2.7,1.1,2.7,2.6s-1.2,2.6-2.7,2.6c-1.5,0-2.7-1.1-2.7-2.6S73.3,8.6,74.9,8.6z M72.8,33.1V16.2
		h4.1v16.9H72.8z"/>
	<path class="st5" d="M84.2,27.7c0.4,1.7,2.1,2.4,3.6,2.4c1.2,0,2.5-0.4,2.5-1.8c0-0.9-0.8-1.4-1.8-1.8l-2.5-0.9
		c-3.4-1.3-4.2-3.2-4.2-4.7c0-3.1,2.7-5.1,6.2-5.1c2.1,0,4.8,0.7,5.9,3.8l-3.3,1.2c-0.4-1.4-1.7-1.7-2.6-1.7c-1.1,0-2.2,0.6-2.2,1.8
		c0,0.9,0.8,1.4,1.8,1.7l2.5,0.9c3.6,1.2,4.3,3.4,4.3,4.8c0,3.3-3.1,5.1-6.6,5.1c-2.7,0-5.8-1.1-6.8-4.4L84.2,27.7z"/>
	<path class="st5" d="M103.8,16.2h5v3.1h-5v8.8c0,1,0.4,1.8,1.6,1.8c1,0,1.7-0.7,1.7-1.7c0-0.4-0.1-1-0.2-1.4h3.4
		c0.3,0.6,0.4,1.6,0.4,1.9c0,2.5-1.7,4.7-5.3,4.7c-2.8,0-5.6-1.2-5.6-5.8v-8.3h-2.6v-3.1h2.8l0.7-4.5h3.2V16.2z"/>
	<path class="st5" d="M130.3,30.2c-2.3,2.5-5,3.2-7.6,3.2c-6.1,0-9.7-3.9-9.7-8.7c0-4.9,3.9-8.9,9.2-8.9c4.6,0,8.9,2.9,8.9,9.4h-14
		c0,2.7,2.2,4.8,5.8,4.8c2.1,0,3.7-0.8,5.1-2.1L130.3,30.2z M117.3,22.4h9.6c-0.6-2.6-2.9-3.3-4.7-3.3
		C120.4,19.1,118.2,19.8,117.3,22.4z"/>
	<path class="st5" d="M148,21.1c3.3,0.4,5.3,3,5.3,5.6c0,3.8-3.2,6.4-8,6.4h-9.6V9.7h8.6c4.6,0,8,2.3,8,6.2
		C152.2,18.1,150.8,20.2,148,21.1z M142.8,19.8c3.9,0,5-1.9,5-3.6c0-2-1.7-3-3.6-3h-4.3v6.6H142.8z M139.9,22.9v6.8h5.3
		c2.1,0,3.7-1.2,3.7-3.1c0-1.9-1.2-3.7-5.5-3.7H139.9z"/>
	<path class="st5" d="M174.9,16.2v16.9h-4.1v-2.5c-1.2,1.8-3.3,2.9-5.8,2.9c-5,0-8.3-3.9-8.3-8.9c0-4.8,3.1-8.7,8.3-8.7
		c2.3,0,4.4,0.9,5.7,2.9v-2.5H174.9z M165.9,30c2.8,0,5-1.9,5-5.2c0-3.3-2.1-5.5-5.1-5.5c-3.1,0-4.9,2.4-4.9,5.3
		C160.9,27.6,162.8,30,165.9,30z"/>
	<path class="st5" d="M182.2,27.7c0.4,1.7,2.1,2.4,3.6,2.4c1.2,0,2.5-0.4,2.5-1.8c0-0.9-0.8-1.4-1.8-1.8l-2.5-0.9
		c-3.4-1.3-4.2-3.2-4.2-4.7c0-3.1,2.7-5.1,6.2-5.1c2.1,0,4.8,0.7,5.9,3.8l-3.3,1.2c-0.4-1.4-1.7-1.7-2.6-1.7c-1.1,0-2.2,0.6-2.2,1.8
		c0,0.9,0.8,1.4,1.8,1.7l2.5,0.9c3.6,1.2,4.3,3.4,4.3,4.8c0,3.3-3.1,5.1-6.6,5.1c-2.7,0-5.8-1.1-6.8-4.4L182.2,27.7z"/>
	<path class="st5" d="M212.9,30.2c-2.3,2.5-5,3.2-7.6,3.2c-6.1,0-9.7-3.9-9.7-8.7c0-4.9,3.9-8.9,9.2-8.9c4.6,0,8.9,2.9,8.9,9.4h-14
		c0,2.7,2.2,4.8,5.8,4.8c2.1,0,3.7-0.8,5.1-2.1L212.9,30.2z M199.8,22.4h9.6c-0.6-2.6-2.9-3.3-4.7-3.3
		C203,19.1,200.7,19.8,199.8,22.4z"/>
</g>
</svg>
